4d 54 68 64 00 00 00 06 00 01 00 02 03 c0 4d 54 72 6b 00 00 00 2f 00 ff 02 00 00 ff 03 1c 32 30 32 32 2d 34 2d 31 35 5f 31 34 2d 35 35 2d 35 34 5f 36 37 38 34 31 32 39 30 36 00 ff 51 03 07 a1 20 00 ff 2f 00 4d 54 72 6b 00 00 00 3b 00 ff 03 00 00 c0 00 00 90 3c 64 82 2c 80 3c 00 00 90 40 64 81 70 80 40 00 00 90 40 64 3d 80 40 00 00 90 44 64 3b 90 44 64 81 35 80 44 00 3b 80 44 00 9e 3c b0 7b 00 00 ff 2f 00 